<?xml version="1.0" encoding="UTF-8"?>
<!--Generator: Apple Native CoreSVG 175.5-->
<!DOCTYPE svg
PUBLIC "-//W3C//DTD SVG 1.1//EN"
       "http://www.w3.org/Graphics/SVG/1.1/DTD/svg11.dtd">
<svg version="1.1" xmlns="http://www.w3.org/2000/svg" xmlns:xlink="http://www.w3.org/1999/xlink" width="40.8203" height="40.8398">
 <g>
  <rect height="40.8398" opacity="0" width="40.8203" x="0" y="0"/>
  <path d="M18.6133 40.8203L22.207 40.8203C23.2227 40.8203 23.9648 40.2148 24.1797 39.2188L25.1953 34.9219C25.957 34.668 26.6992 34.375 27.3438 34.0625L31.1133 36.3672C31.9531 36.8945 32.9102 36.8164 33.6133 36.1133L36.1328 33.6133C36.8359 32.9102 36.9336 31.8945 36.3672 31.0547L34.0625 27.3242C34.3945 26.6406 34.6875 25.9375 34.9023 25.2344L39.2383 24.1992C40.2344 23.9844 40.8203 23.2422 40.8203 22.2266L40.8203 18.6914C40.8203 17.6953 40.2344 16.9531 39.2383 16.7383L34.9414 15.7031C34.6875 14.9023 34.375 14.1797 34.1016 13.5742L36.4062 9.78516C36.9531 8.94531 36.8945 7.98828 36.1719 7.28516L33.6133 4.76562C32.8906 4.10156 32.0312 3.98438 31.1719 4.47266L27.3438 6.83594C26.7188 6.50391 25.9961 6.21094 25.1953 5.95703L24.1797 1.60156C23.9648 0.605469 23.2227 0 22.207 0L18.6133 0C17.5977 0 16.8555 0.605469 16.6211 1.60156L15.6055 5.91797C14.8438 6.17188 14.1016 6.46484 13.4375 6.81641L9.64844 4.47266C8.78906 3.98438 7.91016 4.08203 7.1875 4.76562L4.64844 7.28516C3.92578 7.98828 3.84766 8.94531 4.41406 9.78516L6.69922 13.5742C6.44531 14.1797 6.13281 14.9023 5.87891 15.7031L1.58203 16.7383C0.585938 16.9531 0 17.6953 0 18.6914L0 22.2266C0 23.2422 0.585938 23.9844 1.58203 24.1992L5.91797 25.2344C6.13281 25.9375 6.42578 26.6406 6.73828 27.3242L4.45312 31.0547C3.86719 31.8945 3.98438 32.9102 4.6875 33.6133L7.1875 36.1133C7.89062 36.8164 8.86719 36.8945 9.70703 36.3672L13.457 34.0625C14.1211 34.375 14.8438 34.668 15.6055 34.9219L16.6211 39.2188C16.8555 40.2148 17.5977 40.8203 18.6133 40.8203ZM20.4102 27.3047C16.6211 27.3047 13.5156 24.1797 13.5156 20.3906C13.5156 16.6211 16.6211 13.5156 20.4102 13.5156C24.1992 13.5156 27.3047 16.6211 27.3047 20.3906C27.3047 24.1797 24.1992 27.3047 20.4102 27.3047Z" fill="#ffffff" fill-opacity="0.85"/>
 </g>
</svg>
